<svg width="137" height="46" viewBox="0 0 137 46" fill="none" xmlns="http://www.w3.org/2000/svg">
<path d="M18.355 35.2177C8.87802 35.2177 0.911438 27.5037 0.911438 18.0267C0.911438 8.54968 8.87802 0.835623 18.355 0.835623C22.7598 0.765705 27.007 2.47286 30.1381 5.57174L26.8028 8.90703C24.5283 6.72314 21.4841 5.52464 18.3312 5.57174C11.5252 5.70465 6.07739 11.2599 6.07739 18.0672C6.07739 24.8744 11.5252 30.4297 18.3312 30.5626C22.8195 30.5626 25.3734 28.7615 27.0125 27.1225C28.3561 25.7788 29.2328 23.8539 29.5711 21.2095H18.4027V16.4829H34.1643C34.3427 17.4508 34.4273 18.4338 34.4168 19.418C34.4168 22.9391 33.4639 27.2988 30.3478 30.4054C27.3317 33.5405 23.4723 35.2177 18.355 35.2177Z" fill="#151515"/>
<path d="M58.0688 24.1444C58.0726 28.6259 55.376 32.6683 51.2368 34.3859C47.0976 36.1036 42.3312 35.1581 39.1609 31.9906C35.9907 28.8231 35.0412 24.0575 36.7553 19.9168C38.4694 15.7761 42.5094 13.076 46.9908 13.076C49.9401 13.0333 52.7813 14.1854 54.8679 16.2702C56.9545 18.3549 58.109 21.1951 58.0688 24.1444ZM53.2183 24.1444C53.2183 20.1612 50.3357 17.4357 46.9908 17.4357C43.646 17.4357 40.7634 20.1612 40.7634 24.1444C40.7634 28.1277 43.646 30.8531 46.9908 30.8531C50.3357 30.8531 53.2183 28.0896 53.2183 24.1444Z" fill="#151515"/>
<path d="M82.4021 24.1444C82.4195 28.6423 79.7234 32.707 75.5728 34.4404C71.4222 36.1737 66.636 35.2337 63.4493 32.0593C60.2626 28.8849 59.3041 24.1024 61.0213 19.9451C62.7386 15.7878 66.7929 13.076 71.2909 13.076C74.2427 13.0347 77.0864 14.1862 79.1779 16.2697C81.2695 18.3531 82.4319 21.1923 82.4021 24.1444ZM77.5374 24.1444C77.5374 20.1611 74.6452 17.4357 71.2909 17.4357C67.9365 17.4357 65.0443 20.1611 65.0443 24.1444C65.0443 28.1277 67.9365 30.8531 71.2909 30.8531C74.6452 30.8531 77.5374 28.0895 77.5374 24.1444Z" fill="#151515"/>
<path d="M105.597 13.7478V33.6357C105.597 41.8119 100.775 45.1663 95.0719 45.1663C90.7744 45.1875 86.8937 42.5997 85.2613 38.6243L89.4972 36.8614C90.25 38.6624 92.0987 40.8018 95.0719 40.8018C98.7216 40.8018 100.985 38.5386 100.985 34.3027V32.6827H100.818C99.3398 34.337 97.2086 35.2571 94.9909 35.1985C89.4543 35.1985 84.3942 30.3766 84.3942 24.173C84.3942 17.9693 89.4543 13.0617 94.9909 13.0617C97.1979 13.0075 99.3213 13.9069 100.818 15.5298H100.985V13.7478H105.597ZM101.309 24.1873C101.309 20.2898 98.7073 17.4357 95.3959 17.4357C92.0844 17.4357 89.2303 20.2945 89.2303 24.1873C89.2303 28.08 92.0415 30.8579 95.3959 30.8579C98.7502 30.8579 101.318 28.0467 101.318 24.1873H101.309Z" fill="#151515"/>
<path d="M113.415 2.14581V34.5458H108.579V2.14581H113.415Z" fill="#151515"/>
<path d="M132.031 27.7941L135.805 30.3099C133.751 33.3933 130.285 35.2375 126.58 35.2175C120.291 35.2175 115.593 30.3527 115.593 24.1491C115.593 17.5643 120.329 13.0807 126.032 13.0807C131.736 13.0807 134.609 17.65 135.509 20.1229L136.014 21.3808L121.215 27.5034C122.349 29.7238 124.107 30.8387 126.58 30.8387C129.053 30.8387 130.778 29.638 132.031 27.7941ZM120.415 23.8108L130.311 19.7036C129.768 18.3219 128.129 17.3546 126.204 17.3546C124.576 17.4293 123.046 18.1554 121.959 19.3697C120.872 20.584 120.319 22.1844 120.424 23.8108H120.415Z" fill="#151515"/>
</svg>
