<svg width="171" height="44" viewBox="0 0 171 44" fill="none" xmlns="http://www.w3.org/2000/svg">
<path d="M55.3527 17.3235C55.3527 14.2618 52.3754 11.0102 47.2237 11.0102C41.4384 11.0102 35.0831 15.2542 34.1117 23.7208C33.1194 32.2722 38.4401 36.0728 43.8031 36.0728C49.1664 36.0728 51.9744 33.9825 54.8461 31.1955C52.3754 28.0915 49.1874 29.5275 48.5751 29.8442C47.8994 30.1818 47.0337 30.6465 45.2601 30.6465C43.1907 30.6465 41.0794 29.7175 41.0794 25.8535C54.3394 24.5445 55.3527 20.3848 55.3527 17.3235ZM48.7861 17.8302C48.7017 18.7802 48.3217 20.4062 41.6074 21.3138C43.0221 16.2888 45.7244 15.9088 46.9704 15.9088C48.1317 15.9088 48.8704 16.8165 48.7861 17.8302ZM26.3204 18.6535C26.3204 18.6535 23.4704 27.6058 23.2377 28.3448C23.1534 27.5848 21.0631 11.5168 21.0631 11.5168C16.2067 11.5168 13.6097 14.9795 12.2374 18.6325C12.2374 18.6325 8.77445 27.6058 8.47912 28.3658C8.45778 27.6692 7.95112 18.7382 7.95112 18.7382C7.65545 14.2615 3.55945 11.5382 0.244446 11.5382L4.25612 35.8828C9.34478 35.8618 12.0894 32.4202 13.5254 28.7672C13.5254 28.7672 16.5867 20.8495 16.7134 20.4905C16.7347 20.8282 18.9094 35.8828 18.9094 35.8828C24.0191 35.8828 26.7641 32.6522 28.2421 29.1262L35.3997 11.5382C30.3531 11.5382 27.6931 14.9795 26.3204 18.6535ZM74.1021 10.9678C70.9561 10.9678 68.5491 12.6782 66.5221 15.1908V15.1698L68.3381 0.537476C64.1574 0.537476 60.7581 4.16915 60.1034 9.57415L56.9361 35.6928C59.3434 35.6928 61.8981 34.9962 63.2704 33.2225C64.4951 34.8058 66.3321 36.0728 69.0557 36.0728C76.1081 36.0728 80.9431 27.8805 80.9431 20.1948C80.9011 13.1848 77.5014 10.9682 74.1021 10.9682V10.9678ZM73.4477 23.5312C72.7087 27.8172 70.3227 30.7312 68.0211 30.7312C65.6987 30.7312 64.7064 29.6962 64.7064 29.6962C65.1497 25.9378 65.4241 23.6365 66.2687 21.6518C67.1134 19.6672 69.1191 16.4998 71.2094 16.4998C73.2574 16.4998 74.1867 19.2235 73.4477 23.5308V23.5312ZM98.5524 11.5375H93.6327L93.6541 11.2842C93.9917 8.07481 94.7517 6.38581 97.2644 6.11148C98.9747 5.94248 99.7347 5.05548 99.9247 4.08448C100.073 3.32448 100.537 0.684809 100.537 0.684809C90.6557 0.621476 87.5521 4.88681 86.7497 11.3898L86.7284 11.5378H86.6227C85.0182 11.5378 83.2447 13.3535 82.9491 15.6548L82.8434 16.4995H86.1374L83.3714 39.3452L82.5267 43.4415C82.6324 43.4415 82.7591 43.4625 82.8644 43.4625C87.4887 43.2935 90.4444 39.6408 91.0991 34.3412L93.2527 16.4995H94.7941C96.3141 16.4995 98.0882 14.9795 98.4047 12.4455L98.5524 11.5378V11.5375ZM124.143 11.1155C118.463 11.1155 113.1 15.2962 111.453 21.8625C109.806 28.4292 112.297 36.1992 120.659 36.1992C128.999 36.1992 133.813 28.1125 133.813 21.3768C133.813 14.6835 129.273 11.1155 124.143 11.1155ZM126.444 23.3195C126.148 26.2965 124.839 30.8152 121.25 30.8152C117.639 30.8152 118.146 25.5365 118.505 23.0238C118.885 20.3425 120.384 16.5205 123.615 16.5205C126.507 16.5205 126.782 19.9622 126.444 23.3195ZM161.874 18.6532C161.874 18.6532 159.023 27.6055 158.791 28.3445C158.707 27.5845 156.616 11.5165 156.616 11.5165C151.76 11.5165 149.163 14.9792 147.791 18.6322C147.791 18.6322 144.328 27.6055 144.032 28.3655C144.011 27.6688 143.504 18.7378 143.504 18.7378C143.209 14.2612 139.113 11.5378 135.798 11.5378L139.788 35.8825C144.877 35.8615 147.622 32.4198 149.057 28.7668C149.057 28.7668 152.119 20.8492 152.225 20.4902C152.246 20.8278 154.42 35.8825 154.42 35.8825C159.53 35.8825 162.275 32.6518 163.753 29.1258L170.911 11.5382C165.885 11.5382 163.225 14.9795 161.874 18.6535V18.6532ZM103.197 0.685143L99.0591 34.0668L98.2147 38.1842C98.3201 38.1842 98.4467 38.2055 98.5524 38.2055C103.007 38.1422 106.174 34.2358 106.765 29.3162L109.151 10.1655C109.869 4.31681 106.385 0.685476 103.197 0.685476V0.685143Z" fill="#151515"/>
</svg>
